<svg width="18" height="26" viewBox="0 0 18 26" fill="none" xmlns="http://www.w3.org/2000/svg">
    <g clip-path="url(#clip0_2024_140)">
        <path
            d="M3.65817 3.4986C5.66394 3.4986 7.29558 5.13336 7.29558 7.14297V22.3452C7.29558 24.3548 5.66394 25.9896 3.65817 25.9896C1.65239 25.9896 0.020752 24.3548 0.020752 22.3452V7.14297C0.020752 5.13336 1.65239 3.4986 3.65817 3.4986Z"
            fill="url(#paint0_linear_2024_140)" />
        <path
            d="M14.3626 0C16.3684 0 18 1.63476 18 3.64437V15.6187C18 17.6284 16.3684 19.2631 14.3626 19.2631C12.3569 19.2631 10.7252 17.6284 10.7252 15.6187V3.64437C10.7252 1.63476 12.3569 0 14.3626 0Z"
            fill="url(#paint1_linear_2024_140)" />
        <path
            d="M17.9688 15.9625C17.813 16.7955 16.0878 17.7326 15.3187 16.3269C14.6848 15.1607 12.9284 12.4743 12.3464 11.5788L6.98385 1.87435C6.00695 0.114637 3.79332 -0.520525 2.03697 0.458249C-0.363722 1.87435 0.0208044 3.89437 0.0208044 9.20475C0.176694 8.37175 2.03697 7.94483 2.80602 9.35052C3.57508 10.7562 11.0578 24.2716 11.0578 24.2716C12.0347 26.0313 14.903 26.25 16.0462 25.7398C17.1063 25.2712 17.7506 24.1363 17.8545 22.9284C18.1247 21.5123 17.9169 19.3465 17.9688 15.9625Z"
            fill="url(#paint2_linear_2024_140)" />
    </g>
    <defs>
        <linearGradient id="paint0_linear_2024_140" x1="3.66137" y1="3.49753" x2="3.66137" y2="25.9885"
            gradientUnits="userSpaceOnUse">
            <stop offset="0.165" stop-color="#5F5001" />
            <stop offset="1" stop-color="#FDD201" />
        </linearGradient>
        <linearGradient id="paint1_linear_2024_140" x1="14.3658" y1="0" x2="14.3658" y2="19.2631"
            gradientUnits="userSpaceOnUse">
            <stop stop-color="#4F8620" />
            <stop offset="1" stop-color="#25430C" />
        </linearGradient>
        <linearGradient id="paint2_linear_2024_140" x1="2.19565" y1="1.50129" x2="16.2341" y2="24.2899"
            gradientUnits="userSpaceOnUse">
            <stop stop-color="#FFD403" />
            <stop offset="1" stop-color="#2F5B0B" />
        </linearGradient>
        <clipPath id="clip0_2024_140">
            <rect width="18" height="26" fill="white" />
        </clipPath>
    </defs>
</svg>
